<?xml version="1.0" encoding="utf-8"?>
<!-- Generator: Adobe Illustrator 27.3.1, SVG Export Plug-In . SVG Version: 6.00 Build 0)  -->
<svg version="1.1" id="Layer_1" xmlns="http://www.w3.org/2000/svg" xmlns:xlink="http://www.w3.org/1999/xlink" x="0px" y="0px"
	 viewBox="0 0 300.5 49.6" style="enable-background:new 0 0 300.5 49.6;" xml:space="preserve">
<style type="text/css">
	.st0{fill:#FFFFFF;}
</style>
<path class="st0" d="M18,25.6c-1.5,1.3-3.4,2.1-5.4,2.1c-5.9,0-8.4-3.9-8.4-9.4c0-4.1,2.3-8.8,7-8.8h0.1l0,0c2.3,0,4.1,1.9,4.4,3
	c0.1,0.5,0.2,0.7,0.5,0.6c0.4,0,0.4-0.2,0.3-3.1c-1.6-1.3-3.3-1.9-5.3-1.8C3.3,8.5,0.8,15.8,0.8,19.5c0,5.9,3.5,10.4,9.6,10.4
	c3.1,0,6.1-1.1,8.2-3.5L18,25.6z"/>
<path class="st0" d="M35.2,21.5c0,2.9-1.8,8.5-8.1,8.5c-4.6,0-7.2-3.4-7.2-7.8c0-2.9,1.9-8.5,8.1-8.5C32.5,13.6,35.2,17,35.2,21.5z
	 M32.3,22.4c0-3.1-1.4-7.6-5.2-7.6c-3.6,0-4.4,3.7-4.4,6.5c0,3.1,1.4,7.6,5.2,7.6C31.5,28.9,32.3,25.2,32.3,22.4z"/>
<path class="st0" d="M41.9,22.8c0,3.9,0,5.6,1.1,5.6h1.7v1h-7.6v-1h1.3c0.3,0,0.8-0.1,0.8-0.6V10.3C39.1,6,38.8,6,37.7,6h-1.3V5
	c0.9,0,3.7-0.4,5.6-0.8L41.9,22.8L41.9,22.8z"/>
<path class="st0" d="M51.7,19.2c0,3.9,0,9.2,1.1,9.2h1.7v1h-7.6v-1h1.3c0.3,0,0.8-0.1,0.8-0.6V6.6c0-4.3-0.3-4.3-1.5-4.3h-1.3v-1
	c0.9,0,3.7-0.4,5.6-0.8L51.7,19.2L51.7,19.2z"/>
<path class="st0" d="M69.1,27.1c-1.8,1.9-4.1,2.8-6.7,2.8c-4.5,0-6.8-3.5-6.8-7.7c0-4.1,2.2-8.6,6.9-8.6c3.3,0,5,2.2,6.3,5.1
	l-10.4,2.8c0.2,3.5,1.6,6.8,5.7,6.8c1.7,0,3.2-0.6,4.5-1.8L69.1,27.1z M65.7,18.5c-0.6-1.6-1.8-3.8-3.7-3.8c-2.5,0-3.6,3.5-3.6,5.7
	L65.7,18.5z"/>
<path class="st0" d="M103.9,27.1c-1.8,1.9-4.1,2.8-6.7,2.8c-4.5,0-6.8-3.5-6.8-7.7c0-4.1,2.2-8.6,6.9-8.6c3.3,0,5,2.2,6.3,5.1
	l-10.4,2.8c0.2,3.5,1.6,6.8,5.7,6.8c1.7,0,3.2-0.6,4.5-1.8L103.9,27.1z M100.4,18.5c-0.6-1.6-1.8-3.8-3.7-3.8
	c-2.4,0-3.6,3.5-3.6,5.7L100.4,18.5z"/>
<path class="st0" d="M128.8,21.5c0,2.9-1.8,8.5-8.1,8.5c-4.6,0-7.2-3.4-7.2-7.8c0-2.9,1.8-8.5,8.1-8.5
	C126.2,13.6,128.8,17,128.8,21.5z M126,22.4c0-3.1-1.3-7.6-5.2-7.6c-3.6,0-4.4,3.7-4.4,6.5c0,3.1,1.3,7.6,5.2,7.6
	C125.1,28.9,126,25.2,126,22.4z"/>
<path class="st0" d="M135.7,7.9c-2.3,0-5.1,1.4-5.1,5.4v7h-2.1v1h2.1v13.3c0,3.4-0.8,4.3-2.2,4.3c-0.2,0-0.4,0-0.5-0.1
	c-0.5-0.9-1.3-1.7-2.4-1.7c-0.5,0-1,0.3-1,0.8c0,1.5,2.5,2,3.8,2c2.3,0,5.1-1.4,5.1-5.4V21.3h2.9v-1h-2.9v-7c0-3.4,0.8-4.3,2.2-4.3
	c0.2,0,0.4,0,0.5,0.1c0.5,0.9,1.3,1.7,2.4,1.7c0.5,0,1-0.3,1-0.8C139.6,8.4,137.1,7.9,135.7,7.9z"/>
<path class="st0" d="M180.5,38.8V37c0-1.6-0.1-2.9-2.6-2.9c-0.9,0-2.1,0.3-2.9,0.8c0,1.9-0.8,3.3-2,3.3c-0.5,0-1-0.4-1-1
	c0-2.5,3.8-4.6,7.5-4.6c3.5,0,3.7,1.7,3.7,4.6v5.4c0,3,0.2,3.9,2.4,4.5l-1.1,1.8c-1.6,0-3.4-1.3-3.8-3.2c-1.4,1.4-3.8,3.2-5.8,3.2
	s-3.2-1.4-3.2-3.3c0-3.1,3-4.4,7.5-6.3L180.5,38.8z M180.5,39.9c-3.6,1.4-5.9,2.6-5.9,5c0,1.2,0.6,1.9,1.9,1.9c1.6,0,3.1-1.1,4-2.3
	V39.9L180.5,39.9z"/>
<path class="st0" d="M202.4,41.8c0,3.9,0,5.6,1.1,5.6h1.6v1h-7.4v-1h1.2c0.3,0,0.8-0.1,0.8-0.6v-8.4c0-3.3-1.2-4-2.8-4
	c-1.9,0-3.2,0.9-4.6,2v5.3c0,3.9,0,5.6,1.1,5.6h1.6v1h-7.4v-1h1.3c0.3,0,0.8-0.1,0.8-0.6v-8.4c0-4.3-0.3-4.3-1.5-4.3h-1.4v-1
	c0.5,0,1.7-0.1,2.9-0.3c1.2-0.1,2.3-0.3,2.7-0.3v2.7c1.8-1.3,3.4-2.7,5.8-2.7c3.7,0,4.3,2.4,4.3,5L202.4,41.8L202.4,41.8z"/>
<path class="st0" d="M240.8,26.8h-1.6c-0.4,0-0.5,0.3-0.5,0.6v14.9c0,3.7,0.1,5,1,5h2v1.1h-8.3v-1.1h1.7c0.4,0,0.5-0.3,0.5-0.6V29.2
	l-0.1-0.1l-8,18.9c-0.1,0.2-0.1,0.3-0.6,0.3c-0.2,0-0.3-0.4-0.5-0.9L218,29.6l-0.1,0.1v13.9c0,1.6,0.1,3.7,1.1,3.7h1.9v1.1h-6.5
	v-1.1h1.3c0.4,0,0.8-0.2,0.8-0.7V30.9c0-2.9-0.3-4.1-2-4.1h-1.1v-1.1h5.7l8.6,17.7l7.9-17.8h5.1L240.8,26.8L240.8,26.8z"/>
<path class="st0" d="M252.4,38.8V37c0-1.6-0.1-2.9-2.6-2.9c-0.9,0-2.1,0.3-2.9,0.8c0,1.9-0.8,3.3-2,3.3c-0.5,0-1-0.4-1-1
	c0-2.5,3.8-4.6,7.5-4.6c3.5,0,3.7,1.7,3.7,4.6v5.4c0,3,0.2,3.9,2.4,4.5l-1.1,1.8c-1.6,0-3.4-1.3-3.8-3.2c-1.4,1.4-3.8,3.2-5.8,3.2
	s-3.2-1.4-3.2-3.3c0-3.1,3-4.4,7.5-6.3L252.4,38.8z M252.4,39.9c-3.6,1.4-5.9,2.6-5.9,5c0,1.2,0.6,1.9,1.9,1.9c1.6,0,3.1-1.1,4-2.3
	V39.9L252.4,39.9z"/>
<path class="st0" d="M267.6,33.2c-0.1,0.8-0.2,1-0.7,1h-3.1v9.4c0,2.3,0.1,3.9,2.4,3.9c0.8,0,1.6-0.3,2.4-0.6l0.4,0.8
	c-1.2,0.7-3.3,1.3-4.1,1.3c-1.3,0-3.7-0.1-3.7-3.5V34.1c-1.6,0-1.8,0-1.8-0.3s0.3-0.5,4-4.3h0.6v3.6
	C263.8,33.2,267.6,33.2,267.6,33.2z"/>
<path class="st0" d="M283.3,46.1c-1.8,1.8-4.1,2.8-6.7,2.8c-4.5,0-6.8-3.5-6.8-7.7c0-4.1,2.2-8.6,6.9-8.6c3.3,0,5,2.2,6.3,5
	l-10.4,2.8c0.2,3.5,1.6,6.8,5.7,6.8c1.7,0,3.2-0.6,4.5-1.8L283.3,46.1z M279.8,37.5c-0.6-1.6-1.8-3.8-3.7-3.8
	c-2.5,0-3.6,3.5-3.6,5.7L279.8,37.5z"/>
<path class="st0" d="M299.8,40.4c0,2.8-1.9,8.5-8.1,8.5c-4.6,0-7.2-3.4-7.2-7.8c0-2.8,1.9-8.5,8.1-8.5
	C297.2,32.6,299.8,36,299.8,40.4z M297,41.3c0-3.1-1.4-7.7-5.2-7.7c-3.6,0-4.4,3.7-4.4,6.5c0,3.1,1.4,7.6,5.2,7.6
	C296.1,47.8,297,44.2,297,41.3z"/>
<path class="st0" d="M87.6,13.4c-0.5,0-0.6,0.9-2.5,0.9C84,14.3,83,14.2,82,14c-0.1,0-0.2,0-0.2-0.1c-0.6-0.2-1.3-0.3-2.1-0.3h-0.1
	c-0.2,0-0.3,0-0.4,0c-5.8,0.3-7.6,5.7-7.6,8.4c0,4.5,2.6,7.8,7.2,7.8c6.2,0,8.1-5.6,8.1-8.5c0-2.3-0.7-4.4-2.1-5.8
	c0.7,0.1,1.3,0.1,1.9,0.1c0.5,0,0.8-0.2,1-0.9c0.1-0.3,0.3-0.9,0.3-1.1C87.9,13.5,87.8,13.4,87.6,13.4z M79.6,28.9
	c-3.8,0-5.2-4.5-5.2-7.6c0-2.9,0.8-6.6,4.4-6.6c3.8,0,5.2,4.6,5.2,7.7C84,25.2,83.2,28.9,79.6,28.9z"/>
<path class="st0" d="M67,39.4c-1.4-7,3.7-13,10.8-14.3c7.4-1.4,14.1,2.3,15.5,9.2s-3,13.2-10.4,14.5C75.6,50.1,68.4,46.3,67,39.4z
	 M78,26c-6.3,1.2-9.2,7.1-8.1,12.9c1.1,5.7,6.5,10,12.8,8.8s8.9-7.2,7.8-12.9C89.3,29,84.3,24.7,78,26L78,26z"/>
<path class="st0" d="M159.3,27.4c-2.3-0.9-6.6-2.5-7-5.9c-0.2-1.7,0.2-3.3,1.2-4.5c1.1-1.3,2.9-2,4.9-2c3.4,0,5.5,1.9,6.5,3.3
	c0.3,0.5,0.5,1.1,0.6,1.4c0,0.3,0.1,0.7,0.5,0.7c0.3,0,0.5-0.2,0.5-0.6v-3.2l0,0c-2.5-2.6-4.8-3.1-7.5-3.1c-4.9,0-9.1,3.6-9.1,8
	c0,3.5,2.9,6.4,8.4,8.3c4.2,1.5,8.5,3.8,8.2,9.1c-0.3,4.7-4.2,8-9.1,7.8c-2.4-0.1-4.6-1.2-6.3-3c-1.5-1.7-2.4-4-2.3-5.7
	c0.1-2.1,0.4-3.6,1.3-4.9l-0.9-1.1c-1.3,1.7-2.1,3.8-2.2,6c-0.1,2.7,0.9,5.3,2.8,7.4c2.1,2.2,5,3.6,8,3.7c0.2,0,0.4,0,0.6,0l0,0
	c6.4,0,10.9-4.1,11.1-10.1C169.6,32.2,164.7,29.4,159.3,27.4z"/>
</svg>
